#!OML:ASF F:\VICON\USERDATA\INSTALL\rory3\rory3.ASF
:FULLY-SPECIFIED
:DEGREES
411
root 1.62638 18.163 11.8556 -185.85 49.7856 179.041
lowerback 13.3959 3.94219 0.363745
upperback 1.66761 5.30227 -2.68853
thorax -5.43435 2.65219 -3.98033
lowerneck -19.2235 13.8413 -1.48774
upperneck 39.6602 28.9257 -2.41804
head 18.3161 12.0125 5.40338
rclavicle -4.06018e-014 2.46493e-014
rhumerus -46.7198 -23.2446 -69.0284
rradius 24.867
rwrist 7.88713
rhand -14.0628 5.93619
rfingers 7.12502
rthumb 12.0686 -23.6958
lclavicle -4.06018e-014 2.46493e-014
lhumerus -18.6658 -4.94969 86.9293
lradius 46.759
lwrist 2.55389
lhand -20.5172 24.4296
lfingers 7.12502
lthumb 5.84045 54.3291
rfemur -14.2715 -10.5442 14.2976
rtibia 63.2392
rfoot -5.29304 -1.07765
rtoes -12.4954
lfemur -3.75229 -7.51502 -28.1383
ltibia 29.7716
lfoot -2.08891 -12.0024
ltoes 1.79844
412
root 1.5539 18.1772 11.908 -185.68 50.1559 179.18
lowerback 13.2202 4.11098 0.350749
upperback 1.54822 5.51635 -2.7192
thorax -5.44793 2.7536 -4.03248
lowerneck -19.0694 13.8798 -1.5914
upperneck 39.7258 28.9932 -2.23632
head 18.2472 12.0719 5.47836
rclavicle -4.40308e-014 1.98785e-014
rhumerus -46.5959 -23.0926 -69.2283
rradius 24.8908
rwrist 7.79229
rhand -14.1764 5.81247
rfingers 7.12502
rthumb 11.9591 -23.8259
lclavicle -4.40308e-014 1.98785e-014
lhumerus -19.2238 -4.89804 86.9963
lradius 46.8764
lwrist 2.65661
lhand -19.8201 24.5108
lfingers 7.12502
lthumb 6.51351 54.3907
rfemur -13.2695 -10.9853 14.4708
rtibia 63.2468
rfoot -4.97756 -0.819669
rtoes -11.9074
lfemur -4.1959 -7.2887 -27.8945
ltibia 29.7719
lfoot -1.54353 -12.3015
ltoes 2.55071
413
root 1.48048 18.1854 11.9565 -185.429 50.535 179.421
lowerback 12.9367 4.25159 0.494136
upperback 1.5019 5.71996 -2.76434
thorax -5.30843 2.85209 -4.16889
lowerneck -19.0462 13.8948 -1.66957
upperneck 39.7554 29.0104 -2.11764
head 18.2107 12.0909 5.53051
rclavicle 1.4223e-013 -2.38542e-014
rhumerus -46.3112 -22.9782 -69.5622
rradius 25.0327
rwrist 7.39032
rhand -14.2172 5.37309
rfingers 7.12502
rthumb 11.9196 -24.2676
lclavicle 1.4223e-013 -2.38542e-014
lhumerus -19.8583 -4.71856 87.0299
lradius 47.0655
lwrist 2.4783
lhand -19.493 24.6139
lfingers 7.12502
lthumb 6.82925 54.4837
rfemur -12.2345 -11.3967 14.6789
rtibia 63.1403
rfoot -4.69231 -0.605089
rtoes -12.512
lfemur -4.62516 -7.32077 -27.6526
ltibia 29.8153
lfoot -1.23063 -12.2259
ltoes 2.56366
414
root 1.40029 18.1912 12.0043 -184.941 51.0522 179.827
lowerback 12.5962 4.43385 0.764166
upperback 1.45621 5.99517 -2.81792
thorax -5.11634 2.98475 -4.38776
lowerneck -19.2436 13.8843 -1.60347
upperneck 39.8402 29.0185 -2.10834
head 18.3172 12.075 5.56605
rclavicle 8.09551e-014 -4.53229e-014
rhumerus -46.073 -23.1299 -69.7146
rradius 25.1516
rwrist 7.35018
rhand -14.1294 5.54934
rfingers 7.12502
rthumb 12.0043 -24.0864
lclavicle 8.09551e-014 -4.53229e-014
lhumerus -20.672 -3.97515 87.0129
lradius 47.5414
lwrist 1.78049
lhand -19.5968 24.6918
lfingers 7.12502
lthumb 6.72906 54.5649
rfemur -11.3856 -11.6805 15.044
rtibia 62.9466
rfoot -4.46509 -0.224376
rtoes -12.7935
lfemur -5.19446 -7.18165 -27.3088
ltibia 29.8802
lfoot -1.20763 -12.1004
ltoes 1.00588
415
root 1.31876 18.1952 12.0487 -184.679 51.6683 179.983
lowerback 12.344 4.66861 0.899939
upperback 1.35346 6.31729 -2.91408
thorax -5.03568 3.1401 -4.59402
lowerneck -19.1341 13.9187 -1.40957
upperneck 39.7934 29.0855 -2.23597
head 18.3358 12.1184 5.49847
rclavicle -5.14355e-014 1.74931e-014
rhumerus -45.9662 -23.1925 -69.8099
rradius 25.2722
rwrist 7.55134
rhand -14.1305 5.96058
rfingers 7.12502
rthumb 12.0033 -23.6752
lclavicle -5.14355e-014 1.74931e-014
lhumerus -21.1206 -4.03561 86.9379
lradius 47.3922
lwrist 1.95996
lhand -20.4381 24.6726
lfingers 7.12502
lthumb 5.91689 54.57
rfemur -10.5004 -11.8793 15.1906
rtibia 62.6654
rfoot -4.21856 0.317758
rtoes -13.2094
lfemur -5.72799 -7.1072 -27.1898
ltibia 29.9418
lfoot -1.1645 -11.7328
ltoes -0.539426
416
root 1.24258 18.1983 12.097 -184.602 52.1891 180.137
lowerback 12.2822 4.85454 0.976481
upperback 1.29528 6.57053 -2.97574
thorax -5.02685 3.26262 -4.73641
lowerneck -19.1207 13.9604 -1.34797
upperneck 39.7941 29.1449 -2.22601
head 18.3414 12.1523 5.50666
rclavicle 1.00883e-014 3.4191e-014
rhumerus -45.7046 -23.0735 -70.0558
rradius 25.4004
rwrist 7.6103
rhand -14.1017 6.05321
rfingers 7.12502
rthumb 12.031 -23.581
lclavicle 1.00883e-014 3.4191e-014
lhumerus -21.5846 -3.98413 86.8536
lradius 47.148
lwrist 1.95364
lhand -20.7744 24.6248
lfingers 7.12502
lthumb 5.59214 54.531
rfemur -9.32313 -11.9853 15.3316
rtibia 62.245
rfoot -3.9361 0.715945
rtoes -13.6458
lfemur -6.02505 -7.08501 -27.0651
ltibia 29.9764
lfoot -1.06514 -11.4283
ltoes -1.15587
417
root 1.16817 18.2084 12.1549 -184.271 52.541 180.488
lowerback 12.191 5.00231 1.04234
upperback 1.20376 6.7703 -2.96888
thorax -5.04986 3.35619 -4.79161
lowerneck -19.195 13.9475 -1.3043
upperneck 39.832 29.1522 -2.24189
head 18.3946 12.1485 5.51422
rclavicle -1.05356e-014 -1.03368e-014
rhumerus -45.3968 -22.8817 -70.3652
rradius 25.6079
rwrist 7.31041
rhand -14.1149 5.99923
rfingers 7.12502
rthumb 12.0183 -23.6357
lclavicle -1.05356e-014 -1.03368e-014
lhumerus -22.1486 -3.96535 86.8346
lradius 46.9768
lwrist 1.80594
lhand -20.2795 24.5555
lfingers 7.12502
lthumb 6.07 54.4485
rfemur -8.19539 -12.1161 15.6712
rtibia 61.6655
rfoot -3.65755 1.14472
rtoes -12.3312
lfemur -6.42016 -6.92058 -26.7236
ltibia 29.977
lfoot -0.910202 -11.5155
ltoes -1.69618
